<svg xmlns="http://www.w3.org/2000/svg" fill="none" viewBox="0 0 2500 2458"><path fill="#83DEFB" d="M975.5 777.968c197.99 0 358.48-160.499 358.48-358.484C1333.98 221.499 1173.49 61 975.5 61c-197.985 0-358.484 160.499-358.484 358.484 0 197.985 160.499 358.484 358.484 358.484Z"/><path fill="#42ACCD" d="M1782.03 803.546c148.48 0 268.85-120.365 268.85-268.843 0-148.479-120.37-268.844-268.85-268.844-148.48 0-268.84 120.365-268.84 268.844 0 148.478 120.36 268.843 268.84 268.843Zm230.44 76.813h-603.82a49.178 49.178 0 0 0-34.77 14.398 49.151 49.151 0 0 0-14.39 34.762v622.951a393.263 393.263 0 0 0 83.17 249.24 393.313 393.313 0 0 0 221.54 141.27 384.5 384.5 0 0 0 169.4-2.59 384.563 384.563 0 0 0 151.84-75.14c44.4-36.03 80.21-81.5 104.82-133.11a384.656 384.656 0 0 0 37.43-165.23V995.578a115.21 115.21 0 0 0-33.75-81.472 115.214 115.214 0 0 0-81.47-33.747Z"/><path fill="#83DEFB" d="M1590 995.578V1725.3a614.13 614.13 0 0 1-126.77 374.02 614.181 614.181 0 0 1-328.32 219.49 614.106 614.106 0 0 1-394.079-25.82 614.125 614.125 0 0 1-296.873-260.44 550.973 550.973 0 0 1-38.407-76.82 642.442 642.442 0 0 1-25.348-76.81A632.91 632.91 0 0 1 361 1725.3V995.578a115.076 115.076 0 0 1 8.729-44.117 115.079 115.079 0 0 1 62.374-62.373 115.068 115.068 0 0 1 44.116-8.729h998.561c15.14-.02 30.13 2.946 44.12 8.729a115.055 115.055 0 0 1 62.37 62.373 115.133 115.133 0 0 1 8.73 44.117Z"/><path fill="#fff" d="M1057.55 1964.81c-84.335 0-156.935-16.13-217.802-48.4-60.134-32.27-106.334-78.1-138.6-137.5-31.534-60.13-47.3-130.17-47.3-210.1s16.133-149.6 48.4-209c32.266-60.13 79.2-106.33 140.8-138.6 61.6-32.27 135.3-48.4 221.102-48.4 35.93 0 71.13 3.67 105.6 11 35.2 6.6 66.73 16.87 94.6 30.8v134.2h-4.4c-27.87-16.13-58.3-28.23-91.3-36.3-32.27-8.07-63.07-12.1-92.4-12.1-83.602 0-149.602 23.1-198.002 69.3-47.667 46.2-71.5 112.57-71.5 199.1 0 85.8 23.466 151.8 70.4 198 46.933 46.2 111.1 69.3 192.502 69.3 31.53 0 63.43-4.77 95.7-14.3 33-10.27 64.53-24.57 94.6-42.9h4.4v135.3c-58.67 33.73-127.6 50.6-206.8 50.6Z"/></svg>